<?xml version='1.0' encoding='utf-8'?>
<svg xmlns="http://www.w3.org/2000/svg" version="1.1" id="Layer_1" x="0px" y="0px" viewBox="0 0 1661.986 1661.986" enable-background="new 0 0 1661.986 1661.986"> <g> <g> <path fill="none" stroke="#000000" stroke-width="5.1536" stroke-linecap="round" stroke-linejoin="round" stroke-miterlimit="10" d=" M1390.152,1163.463c10.404-17.98,16.456-29.604,24.281-45.74c30.012-5.417,13.058-29.179,13.381-30.179 c2.044-4.148,7.724-16.359,9.23-19.847c-23.577-11.504-51.155-24.591-74.942-35.564c70.653,23.069,156.055,48.88,225.059,68.177 c-63.389-28.043-94.171-41.074-151.975-64.818l13.085,1.127l3.281-6.921c10.805,0.054,14.577,0.104,25.818-0.027 c-6.819-5.307-14.833-11.376-21.794-16.5c1.459-5.242,4.231-15.983,6.678-26.861c19.913-8.08,16.969-23.754,7.206-33.137 c1.404-8.488,0.831-4.634,2.83-18.98c-30.264-7.6-54.369-13.233-79.721-19.039c76.841,7.688,167.565,14.611,238.423,18.564 c-56.651-10.882-106.93-20.157-166.961-30.081l12.632-2.159c0.563-4.898,0.388-3.191,0.812-7.99 c8.448-1.562,18.445-3.525,27.156-5.339c-8.686-3.563-16.446-6.622-25.852-10.224c1.217-19.23,1.691-28.02,1.702-55.8"/> </g> <g> <path fill="none" stroke="#000000" stroke-width="5.1536" stroke-linecap="round" stroke-linejoin="round" stroke-miterlimit="10" d=" M1148.928,1398.558c16.589-9.479,28.192-16.998,43.871-27.53c28.593,10.291,25.671-18.588,26.671-19.483 c15.758-10.991,11.739-8.143,17.877-12.65c-14.661-21.708-32.013-46.814-47.137-68.201 c66.259,73.012,99.009,107.663,160.912,171.458c-41.063-56.17-61.085-82.655-99.291-132.113l10.789,7.534l6.346-4.312 c13.644,7.938,8.861,5.187,22.329,12.834c-2.966-7.331-6.632-16.095-10.582-25.156c11.69-11.826,7.572-7.556,19.244-19.926 c19.533,2.83,27.259-10.3,22.87-25.073c10.879-13.563,8.572-10.625,11.939-15.038c-18.398-17.888-40.272-38.684-59.424-56.47 c59.43,42.892,134.246,94.471,196.909,135.642c-48.148-42.081-87.712-75.276-129.276-109.741l11.983,4.449l4.734-6.488 c8.253,2.962,18.27,6.386,26.151,8.994c-5.359-6.952-11.696-14.977-17.222-21.805c7.325-10.554,19.35-29.635,29.075-47.037"/> </g> <g> <path fill="none" stroke="#000000" stroke-width="5.1536" stroke-linecap="round" stroke-linejoin="round" stroke-miterlimit="10" d=" M822.589,1481.358c19.833,0.069,34.991-0.631,51.804-1.861c19.634,23.265,31.847-3.282,32.847-3.492 c8.307-0.57,4.263-0.236,21.816-1.89c-2.013-28.436-3.937-53.451-6.586-82.697c15.533,73.953,35.935,161.219,53.245,229.071 c-7.375-69.29-11.459-102.515-19.68-164.103l5.565,11.964c0.491-0.022,7.137-0.6,7.629-0.642 c7.845,13.767,5.071,8.954,12.909,22.376c1.141-8.169,2.355-17.616,3.421-27.139c11.679-3.068,21.813-6.06,26.619-7.585 c17.792,13.761,29.377,1.61,32.307-10.298c12.131-4.623,8-2.996,17.85-7.034c-6.961-24.52-15.518-53.421-23.285-78.546 c31.624,70.277,70.896,152.308,102.919,215.803c-18.789-54.35-35.863-102.569-57.288-159.65l8.173,9.855 c4.286-1.873,5.55-2.403,7.334-3.263c5.566,6.53,12.26,14.208,18.181,20.842c-1.134-8.406-2.666-18.916-4.058-27.488 c19.083-9.486,29.182-14.762,48.649-26.275"/> </g> <g> <path fill="none" stroke="#000000" stroke-width="5.1536" stroke-linecap="round" stroke-linejoin="round" stroke-miterlimit="10" d=" M498.523,1390.152c17.985,10.407,29.604,16.456,45.74,24.281c5.417,30.01,29.179,13.058,30.179,13.381 c4.169,2.054,16.395,7.739,19.847,9.23c11.504-23.577,24.591-51.155,35.564-74.942c-23.808,72.917-49.518,158.337-68.177,225.059 c28.052-63.411,41.091-94.212,64.818-151.975l-1.128,13.085l6.921,3.281c-0.054,10.822-0.104,14.576,0.027,25.818 c5.305-6.816,11.377-14.833,16.5-21.793c5.242,1.459,15.983,4.23,26.861,6.678c8.08,19.913,23.754,16.97,33.137,7.206 c8.543,1.412,4.588,0.824,18.98,2.83c7.581-30.189,13.219-54.306,19.039-79.721c-7.686,76.816-14.61,167.547-18.564,238.423 c10.886-56.671,20.157-106.93,30.081-166.961l2.16,12.632c4.781,0.549,3.085,0.378,7.99,0.813 c1.562,8.446,3.525,18.445,5.339,27.156c3.579-8.725,6.63-16.469,10.224-25.852c18.672,1.182,32.452,1.872,55.323,1.592"/> </g> <g> <path fill="none" stroke="#000000" stroke-width="5.1536" stroke-linecap="round" stroke-linejoin="round" stroke-miterlimit="10" d=" M263.428,1148.928c9.449,16.537,16.953,28.125,27.53,43.871c-10.291,28.593,18.588,25.671,19.483,26.671 c10.953,15.704,8.135,11.728,12.65,17.877c21.714-14.665,46.805-32.007,68.201-47.137 c-72.993,66.242-107.649,98.995-171.458,160.912c56.186-41.075,82.655-61.085,132.113-99.291l-7.534,10.789l4.312,6.347 c-7.936,13.64-5.191,8.868-12.834,22.329c7.331-2.967,16.075-6.624,25.156-10.582c12.094,11.954,7.841,7.841,19.926,19.244 c-2.83,19.534,10.301,27.259,25.073,22.87c13.561,10.878,10.614,8.563,15.038,11.939c18.051-18.565,38.839-40.44,56.47-59.424 c-42.894,59.433-94.471,134.246-135.642,196.909c42.081-48.148,75.276-87.712,109.741-129.276l-4.449,11.983l6.488,4.734 c-2.943,8.201-6.364,18.203-8.994,26.151c6.961-5.365,14.974-11.694,21.805-17.222c10.425,7.239,29.557,19.307,47.038,29.076"/> </g> <g> <path fill="none" stroke="#000000" stroke-width="5.1536" stroke-linecap="round" stroke-linejoin="round" stroke-miterlimit="10" d=" M180.628,822.589c-0.07,19.833,0.631,34.991,1.861,51.804c-23.266,19.635,3.282,31.847,3.492,32.847 c0.571,8.326,0.236,4.262,1.89,21.816c28.451-2.014,53.451-3.937,82.697-6.586c-73.948,15.532-161.219,35.935-229.071,53.245 c69.266-7.372,102.478-11.454,164.103-19.68l-11.964,5.565c0.022,0.493,0.6,7.137,0.642,7.629 c-13.756,7.839-8.965,5.077-22.376,12.909c8.239,1.151,17.703,2.365,27.139,3.421c3.076,11.708,6.064,21.825,7.585,26.619 c-13.761,17.792-1.61,29.377,10.298,32.307c4.624,12.134,2.995,7.999,7.034,17.85c24.901-7.069,53.815-15.64,78.546-23.285 c-69.987,31.493-152.068,70.774-215.803,102.919c54.352-18.789,102.569-35.863,159.65-57.288l-9.855,8.173 c1.877,4.296,2.403,5.552,3.263,7.333c-6.533,5.568-14.208,12.26-20.842,18.181c8.428-1.137,18.934-2.669,27.488-4.058 c9.523,19.156,14.801,29.25,26.275,48.648"/> </g> <g> <path fill="none" stroke="#000000" stroke-width="5.1536" stroke-linecap="round" stroke-linejoin="round" stroke-miterlimit="10" d=" M271.834,498.523c-10.422,18.01-16.463,29.619-24.281,45.74c-30.014,5.417-13.058,29.179-13.381,30.179 c-2.039,4.137-7.733,16.38-9.23,19.847c23.577,11.504,51.155,24.591,74.942,35.564c-0.882-0.288-106.583-35.045-225.059-68.177 c63.49,28.088,94.282,41.119,151.975,64.818l-13.085-1.127l-3.281,6.921c-10.819-0.054-14.588-0.104-25.818,0.027 c6.817,5.306,14.833,11.376,21.793,16.5c-1.459,5.242-4.23,15.984-6.678,26.861c-19.913,8.08-16.97,23.754-7.206,33.137 c-1.41,8.526-0.827,4.611-2.83,18.98c30.202,7.584,54.318,13.222,79.721,19.039c-76.843-7.689-167.568-14.611-238.423-18.564 c56.645,10.881,106.93,20.157,166.961,30.081l-12.632,2.16c-0.563,4.898-0.388,3.191-0.812,7.99 c-8.467,1.565-18.463,3.528-27.156,5.339c8.686,3.563,16.446,6.622,25.852,10.224c-1.186,18.744-1.871,32.499-1.592,55.323"/> </g> <g> <path fill="none" stroke="#000000" stroke-width="5.1536" stroke-linecap="round" stroke-linejoin="round" stroke-miterlimit="10" d=" M513.058,263.428c-16.511,9.432-28.122,16.951-43.871,27.53c-28.593-10.291-25.671,18.589-26.671,19.483 c-15.72,10.965-11.722,8.131-17.877,12.65c14.665,21.714,32.013,46.815,47.137,68.201 c-66.251-73.003-98.993-107.647-160.912-171.458c40.996,56.079,61.019,82.57,99.291,132.113l-10.789-7.534l-6.347,4.312 c-13.637-7.934-8.871-5.193-22.329-12.834c2.96,7.316,6.617,16.06,10.582,25.156c-11.954,12.094-7.841,7.841-19.244,19.926 c-19.539-2.831-27.256,10.304-22.87,25.073c-10.878,13.561-8.563,10.614-11.939,15.038c18.567,18.053,40.439,38.838,59.424,56.47 c-59.435-42.895-134.246-94.471-196.909-135.642c0.484,0.423,47.939,42.297,129.276,109.741l-11.983-4.449l-4.734,6.488 c-8.184-2.937-18.186-6.359-26.151-8.994c5.436,7.053,11.777,15.077,17.222,21.805c-7.427,10.702-19.436,29.785-29.075,47.038"/> </g> <g> <path fill="none" stroke="#000000" stroke-width="5.1536" stroke-linecap="round" stroke-linejoin="round" stroke-miterlimit="10" d=" M839.398,180.628c-19.833-0.069-34.991,0.632-51.804,1.861c-19.634-23.265-31.847,3.282-32.847,3.492 c-8.327,0.572-4.258,0.235-21.816,1.89c2.01,28.4,3.937,53.451,6.586,82.697c-15.533-73.953-35.935-161.222-53.245-229.071 c7.363,69.177,11.444,102.402,19.68,164.103l-5.566-11.964c-0.493,0.022-7.135,0.6-7.629,0.642 c-7.837-13.753-5.079-8.968-12.909-22.376c-1.139,8.151-2.358,17.638-3.421,27.139c-11.708,3.076-21.813,6.06-26.619,7.585 c-17.792-13.761-29.377-1.61-32.307,10.298c-12.131,4.623-7.989,2.991-17.85,7.034c7.074,24.92,15.646,53.836,23.285,78.546 c-31.488-69.975-70.764-152.048-102.919-215.803c18.808,54.405,35.863,102.569,57.289,159.65l-8.173-9.855 c-4.287,1.874-5.551,2.403-7.333,3.263c-5.67-6.652-12.36-14.32-18.181-20.842c1.14,8.447,2.673,18.959,4.058,27.488 c-19.148,9.519-29.284,14.821-48.648,26.275"/> </g> <g> <path fill="none" stroke="#000000" stroke-width="5.1536" stroke-linecap="round" stroke-linejoin="round" stroke-miterlimit="10" d=" M1163.463,271.834c-18.01-10.422-29.624-16.466-45.74-24.281c-5.418-30.013-29.179-13.058-30.179-13.381 c-4.14-2.04-16.381-7.733-19.847-9.23c-11.498,23.564-24.586,51.143-35.564,74.942c0.354-1.083,35.067-106.662,68.177-225.059 c-28.094,63.505-41.12,94.285-64.818,151.975l1.127-13.085l-6.921-3.281c0.054-10.782,0.104-14.577-0.027-25.818 c-5.305,6.815-11.376,14.832-16.5,21.793c-5.51-1.534-16.427-4.33-26.861-6.678c-8.08-19.913-23.754-16.97-33.137-7.206 c-8.526-1.41-4.604-0.827-18.98-2.83c-7.581,30.189-13.219,54.306-19.039,79.721c7.721-77.174,14.629-167.886,18.564-238.423 c-10.88,56.639-20.157,106.93-30.081,166.961l-2.159-12.632c-4.898-0.563-3.191-0.388-7.99-0.812 c-1.593-8.612-3.555-18.589-5.339-27.156c-3.098,7.552-6.143,15.198-10.224,25.852c-18.744-1.186-32.499-1.871-55.323-1.592"/> </g> <g> <path fill="none" stroke="#000000" stroke-width="5.1536" stroke-linecap="round" stroke-linejoin="round" stroke-miterlimit="10" d=" M1398.558,513.058c-9.43-16.505-16.931-28.093-27.53-43.871c10.291-28.593-18.589-25.671-19.483-26.671 c-10.979-15.741-8.131-11.723-12.65-17.877c-21.712,14.664-46.811,32.011-68.201,47.137 c73.013-66.26,107.683-99.028,171.458-160.912c-56.061,40.982-82.565,61.015-132.112,99.291l7.534-10.789l-4.312-6.347 c7.936-13.64,5.191-8.868,12.834-22.329c-7.329,2.966-16.095,6.632-25.156,10.582c-12.094-11.954-7.841-7.841-19.926-19.244 c2.83-19.533-10.3-27.259-25.073-22.87c-13.545-10.865-10.626-8.572-15.038-11.939c-18.055,18.569-38.839,40.44-56.47,59.424 c42.88-59.413,94.461-134.23,135.642-196.909c-41.99,48.045-75.202,87.622-109.741,129.276l4.449-11.983l-6.488-4.734 c2.948-8.216,6.369-18.217,8.994-26.151c-7.066,5.446-15.09,11.788-21.805,17.222c-10.582-7.346-29.707-19.392-47.037-29.076"/> </g> <g> <path fill="none" stroke="#000000" stroke-width="5.1536" stroke-linecap="round" stroke-linejoin="round" stroke-miterlimit="10" d=" M1481.468,839.863c-0.254-28.143-1.054-39.738-1.97-52.269c23.266-19.635-3.282-31.847-3.492-32.847 c-0.57-8.316-0.244-4.35-1.89-21.816c-28.453,2.014-53.451,3.937-82.697,6.586c73.943-15.531,161.219-35.935,229.071-53.245 c-69.295,7.375-102.515,11.459-164.103,19.68l11.964-5.565c-0.022-0.49-0.6-7.138-0.642-7.629 c13.763-7.843,8.958-5.073,22.375-12.909c-8.236-1.15-17.698-2.365-27.139-3.421c-3.068-11.679-6.06-21.813-7.585-26.619 c13.761-17.792,1.61-29.376-10.298-32.307c-4.622-12.127-2.996-8-7.034-17.85c-24.925,7.076-53.837,15.647-78.546,23.284 c70.117-31.552,152.179-70.83,215.803-102.919c-54.39,18.803-102.569,35.863-159.65,57.289l9.855-8.173 c-1.872-4.283-2.401-5.548-3.263-7.333c6.53-5.566,14.208-12.26,20.842-18.181c-8.429,1.137-18.943,2.67-27.488,4.058 c-9.654-19.42-14.936-29.477-26.275-48.648"/> </g> </g> </svg>